<svg width="130" height="47" viewBox="0 0 130 47" fill="none" xmlns="http://www.w3.org/2000/svg">
<path d="M116.528 18.2167C116.091 17.5814 115.857 16.8275 115.861 16.0566C115.852 15.4649 115.988 14.8798 116.258 14.3535C116.527 13.8263 116.922 13.374 117.408 13.0345C118.688 12.1735 120.156 11.6339 121.691 11.4614L125.054 10.9019C125.054 10.9019 125.641 9.17228 124.092 8.71617C122.996 8.39377 121.797 9.17797 121.19 9.66537C120.905 9.89295 120.552 10.0172 120.188 10.0181L117.635 10.02C117.203 10.02 116.94 9.54495 117.171 9.17987C117.671 8.38808 118.488 7.23595 119.339 6.63476C120.713 5.66375 122.077 5.46841 123.305 5.50539C125.57 5.50539 127.251 6.00133 128.35 6.99415C128.9 7.5062 129.333 8.13205 129.617 8.82807C129.9 9.52408 130.028 10.2732 129.992 11.0242V19.3081C129.994 19.3963 129.978 19.4836 129.945 19.5651C129.913 19.6467 129.863 19.7206 129.802 19.7842C129.74 19.8524 129.663 19.9065 129.578 19.9425C129.492 19.9786 129.4 19.9947 129.308 19.9918H125.945C125.765 19.988 125.594 19.9141 125.466 19.787C125.339 19.6599 125.265 19.4883 125.261 19.3091V18.3523C124.823 18.944 124.311 20.0098 121.035 20.0098C117.759 20.0098 116.999 18.89 116.528 18.2177V18.2167ZM124.359 16.3022C124.983 15.4914 125.11 13.6992 125.11 13.6992L122.868 14.0852C121.338 14.3763 120.57 14.9187 120.57 15.7247C120.57 15.9267 120.621 16.1249 120.719 16.3012C120.817 16.4776 120.959 16.6255 121.131 16.7317C121.521 17.0001 121.987 17.1347 122.459 17.1177C122.815 17.1205 123.735 17.112 124.36 16.3003L124.359 16.3022Z" fill="#327FB9"/>
<path d="M97.1544 7.1896C96.6202 6.62444 95.9694 6.18161 95.2483 5.89144C94.5263 5.60128 93.7502 5.47042 92.9731 5.5074C92.1619 5.46758 91.3535 5.62404 90.6163 5.96256C89.8791 6.30109 89.2339 6.8122 88.7358 7.45321V6.18161C88.7396 6.09058 88.7244 5.99954 88.6922 5.91515C88.659 5.83076 88.6087 5.753 88.5442 5.68947C88.4797 5.62499 88.4028 5.57473 88.3174 5.54154C88.232 5.50835 88.1419 5.49318 88.0508 5.49792H84.7898C84.6969 5.49508 84.6048 5.51025 84.5185 5.54249C84.4321 5.57568 84.3524 5.62499 84.2851 5.68852C84.2168 5.7511 84.1627 5.82696 84.1266 5.91231C84.0906 5.99765 84.0745 6.08963 84.0773 6.18161V24.5398C84.0735 24.6317 84.0906 24.7237 84.1266 24.8091C84.1627 24.8944 84.2168 24.9703 84.2851 25.0328C84.4198 25.1561 84.5963 25.2244 84.7794 25.2234H88.3155C88.4066 25.2272 88.4977 25.2121 88.5821 25.1798C88.6675 25.1466 88.7444 25.0964 88.8089 25.0319C88.8734 24.9674 88.9237 24.8906 88.9569 24.8053C88.9901 24.7209 89.0053 24.6298 89.0005 24.5388V18.2149C89.8763 19.4154 91.2008 20.0204 92.974 20.0204C93.7492 20.0602 94.5234 19.9303 95.2426 19.6401C95.9618 19.349 96.6088 18.9052 97.1383 18.3382C98.1658 17.205 98.7094 15.6575 98.7825 13.6842V11.9166C98.7076 9.88643 98.1648 8.31043 97.1544 7.1896ZM93.7815 14.1555C93.7815 15.4726 92.7131 16.5394 91.3962 16.5394C90.0784 16.5394 89.011 15.4716 89.011 14.1555V11.6568C89.011 10.3397 90.0793 9.27291 91.3962 9.27291C92.7141 9.27291 93.7815 10.3406 93.7815 11.6568V14.1555Z" fill="#327FB9"/>
<path d="M58.0811 19.8146C58.0251 19.7634 57.9805 19.7008 57.9492 19.6315C57.9179 19.5623 57.9008 19.4874 57.8989 19.4116C57.8866 19.3309 57.8866 19.2485 57.8989 19.1669L64.3914 1.37581C64.4559 1.12926 64.6059 0.914011 64.8136 0.767981C65.0214 0.621002 65.2747 0.552727 65.5281 0.574537H69.8564C70.105 0.559365 70.3517 0.631432 70.5528 0.777463C70.7549 0.923494 70.9001 1.13495 70.9637 1.37581L77.4268 19.1783C77.4382 19.2598 77.4382 19.3414 77.4268 19.4229C77.4249 19.4988 77.4078 19.5737 77.3765 19.6429C77.3452 19.7121 77.3006 19.7747 77.2446 19.8259C77.1934 19.8819 77.1308 19.9265 77.0615 19.9577C76.9922 19.989 76.9173 20.0061 76.8414 20.008H73.2407C73.0396 20.0184 72.8404 19.9653 72.6715 19.8563C72.5026 19.7472 72.3717 19.587 72.2976 19.4002L71.2976 16.7052H64.028L63.0337 19.4002C62.9588 19.5879 62.8269 19.7472 62.6561 19.8563C62.4863 19.9653 62.2861 20.0184 62.0849 20.0089H58.4843C58.4074 20.0052 58.3325 19.9871 58.2632 19.954C58.194 19.9208 58.1323 19.8734 58.0811 19.8155V19.8146ZM65.1922 12.5367H70.1335L67.6628 5.45803L65.1922 12.5367Z" fill="#327FB9"/>
<path d="M78.2136 19.8187C78.1443 19.757 78.0903 19.6802 78.0542 19.5949C78.0181 19.5095 78.0011 19.4175 78.0049 19.3256V1.25948C78.0001 1.16655 78.0172 1.07267 78.0533 0.986379C78.0893 0.900088 78.1443 0.82328 78.2136 0.759747C78.2819 0.696214 78.3616 0.646905 78.4489 0.613717C78.5362 0.581476 78.6292 0.565356 78.7221 0.569149H82.1653C82.2564 0.566304 82.3465 0.583372 82.4309 0.616561C82.5154 0.650698 82.5922 0.701904 82.6558 0.766385C82.7194 0.830866 82.7687 0.908623 82.801 0.993017C82.8332 1.07741 82.8475 1.16844 82.8427 1.25853V19.3246C82.8446 19.4128 82.8285 19.5 82.7953 19.5816C82.7621 19.6631 82.7137 19.7381 82.6511 19.8006C82.5884 19.8689 82.5116 19.923 82.4262 19.959C82.3408 19.995 82.2478 20.0111 82.1548 20.0083H78.7231C78.6301 20.0111 78.5371 19.996 78.4498 19.9637C78.3626 19.9305 78.2829 19.8812 78.2145 19.8177L78.2136 19.8187Z" fill="#327FB9"/>
<path d="M100.123 19.8185C100.057 19.755 100.005 19.6782 99.9696 19.5938C99.9355 19.5084 99.9184 19.4174 99.9222 19.3254V1.26027C99.9184 1.16734 99.9345 1.07536 99.9687 0.989073C100.004 0.902782 100.056 0.825025 100.123 0.761493C100.262 0.633479 100.444 0.565204 100.632 0.570894H104.317C104.409 0.568049 104.501 0.583221 104.587 0.615462C104.674 0.647702 104.752 0.69796 104.82 0.761493C104.888 0.823129 104.942 0.899937 104.977 0.98528C105.013 1.07062 105.029 1.1626 105.027 1.25458V7.36417C105.554 6.7497 106.214 6.2623 106.956 5.93989C107.697 5.61749 108.503 5.46861 109.31 5.50275C110.289 5.49042 111.253 5.73602 112.106 6.21489C112.968 6.70039 113.664 7.43434 114.103 8.3219C114.604 9.36972 114.848 10.5228 114.813 11.6844V19.3188C114.817 19.4108 114.8 19.5027 114.764 19.5881C114.728 19.6734 114.674 19.7493 114.607 19.8119C114.539 19.8754 114.46 19.9247 114.374 19.9579C114.288 19.9901 114.196 20.0063 114.104 20.0025H110.39C110.211 19.9987 110.039 19.9247 109.913 19.7976C109.786 19.6706 109.713 19.4989 109.708 19.3188V11.8541C109.749 11.1742 109.533 10.5038 109.105 9.9766C108.884 9.74807 108.617 9.57075 108.322 9.45506C108.027 9.34032 107.71 9.29007 107.394 9.30903C107.076 9.29291 106.758 9.34412 106.461 9.45886C106.164 9.57359 105.895 9.74997 105.671 9.9766C105.227 10.4972 105.002 11.1704 105.045 11.8541V19.3254C105.048 19.4174 105.031 19.5094 104.995 19.5947C104.959 19.6801 104.905 19.7559 104.837 19.8185C104.77 19.882 104.691 19.9313 104.604 19.9645C104.518 19.9977 104.426 20.0119 104.334 20.0091H100.649C100.553 20.0138 100.457 19.9996 100.367 19.9664C100.277 19.9332 100.194 19.883 100.123 19.8185Z" fill="#327FB9"/>
<path d="M63.2889 42.4732C63.2358 42.422 63.195 42.3604 63.1675 42.2911C63.1399 42.2229 63.1276 42.1489 63.1305 42.0759V27.7639H58.452C58.378 27.7668 58.303 27.7544 58.2338 27.7269C58.1645 27.6994 58.1019 27.6587 58.0488 27.6056C57.9966 27.5525 57.9548 27.4899 57.9273 27.4207C57.8998 27.3514 57.8875 27.2775 57.8903 27.2026V26.26C57.8865 26.1822 57.8989 26.1054 57.9264 26.0324C57.9539 25.9604 57.9956 25.894 58.0488 25.838C58.1009 25.7849 58.1636 25.7432 58.2328 25.7157C58.3021 25.6882 58.3761 25.6759 58.4511 25.6797H70.0756C70.1515 25.673 70.2293 25.6835 70.3004 25.711C70.3716 25.7385 70.4361 25.7821 70.4883 25.839C70.5917 25.9547 70.6458 26.1064 70.6372 26.2609V27.2035C70.6401 27.2775 70.6277 27.3524 70.6002 27.4216C70.5727 27.4908 70.5319 27.5534 70.4788 27.6065C70.4257 27.6596 70.363 27.7004 70.2938 27.7279C70.2245 27.7554 70.1505 27.7677 70.0756 27.7649H65.4227V42.0873C65.4237 42.1612 65.4094 42.2352 65.38 42.3035C65.3506 42.3717 65.3079 42.4334 65.2538 42.4836C65.1419 42.587 64.9939 42.6439 64.8421 42.642H63.6751C63.603 42.642 63.5308 42.6259 63.4644 42.5974C63.398 42.568 63.3382 42.5263 63.288 42.4741L63.2889 42.4732Z" fill="#262626"/>
<path d="M71.5672 42.4439C71.515 42.3917 71.4742 42.3301 71.4467 42.2628C71.4192 42.1945 71.4059 42.1215 71.4078 42.0484V26.2089C71.4078 26.1368 71.4201 26.0647 71.4476 25.9974C71.4751 25.9301 71.515 25.8694 71.5662 25.8182C71.6753 25.7224 71.8176 25.6712 71.9638 25.675H73.0814C73.2323 25.6665 73.3803 25.7177 73.4932 25.8182C73.5435 25.8732 73.5824 25.9386 73.6071 26.0088C73.6317 26.0789 73.6422 26.1539 73.6374 26.2288V31.649C74.0824 31.0762 74.6507 30.6097 75.3006 30.2844C76.0397 29.9421 76.8481 29.7724 77.6641 29.7895C78.3405 29.7525 79.018 29.8663 79.6451 30.1232C80.2713 30.3802 80.833 30.7728 81.2884 31.2735C82.1926 32.3782 82.6547 33.7768 82.5844 35.2002V42.0342C82.5873 42.1072 82.574 42.1803 82.5474 42.2485C82.5199 42.3168 82.4782 42.3784 82.4251 42.4296C82.3738 42.4818 82.3121 42.5226 82.2429 42.5491C82.1746 42.5766 82.1015 42.5889 82.0285 42.588H80.8861C80.8121 42.5899 80.7381 42.5776 80.6708 42.5501C80.6024 42.5226 80.5398 42.4818 80.4876 42.4306C80.4355 42.3794 80.3947 42.3168 80.3681 42.2485C80.3406 42.1803 80.3282 42.1072 80.3292 42.0342V35.368C80.3994 34.397 80.1081 33.4336 79.5104 32.6627C79.202 32.327 78.8216 32.0643 78.3984 31.8936C77.9753 31.7229 77.5179 31.6471 77.0616 31.6736C76.6014 31.6528 76.1413 31.7296 75.7134 31.9003C75.2855 32.0709 74.8983 32.3308 74.5796 32.6627C73.9306 33.4042 73.5985 34.3705 73.6554 35.3528V42.0437C73.6583 42.1167 73.646 42.1888 73.6194 42.2571C73.5928 42.3253 73.553 42.387 73.5017 42.4391C73.4486 42.4913 73.386 42.5321 73.3167 42.5586C73.2475 42.5861 73.1735 42.5994 73.0995 42.5975H71.9818C71.9049 42.6032 71.829 42.5918 71.7569 42.5652C71.6848 42.5387 71.6194 42.497 71.5653 42.4439H71.5672Z" fill="#262626"/>
<path d="M85.9667 41.0623C84.9268 39.9083 84.349 38.4119 84.3433 36.8587L84.3177 36.3191L84.3433 35.515C84.3575 33.9741 84.9344 32.4911 85.9667 31.3465C86.4819 30.8231 87.1024 30.4144 87.7874 30.1479C88.4715 29.8815 89.2049 29.762 89.9392 29.798C91.7163 29.798 93.0958 30.3641 94.075 31.4954C95.0551 32.6267 95.5428 33.8774 95.5409 35.8166V36.2338C95.5437 36.3078 95.5304 36.3817 95.5039 36.451C95.4773 36.5202 95.4355 36.5828 95.3843 36.6349C95.3331 36.6871 95.2695 36.7288 95.2002 36.7563C95.1319 36.7838 95.0579 36.7971 94.9839 36.7952H86.5426V37.0133C86.572 37.9938 86.9212 38.9382 87.536 39.7035C87.8149 40.0628 88.1754 40.3511 88.5882 40.5446C89.0018 40.738 89.4535 40.83 89.9098 40.8148C90.5578 40.8423 91.2011 40.6877 91.7666 40.3682C92.1803 40.1245 92.5446 39.8087 92.8444 39.4351C92.9326 39.2967 93.0475 39.1772 93.1812 39.0824C93.3141 39.0349 93.4535 39.0141 93.594 39.0226H94.6613C94.797 39.0198 94.9298 39.0615 95.039 39.1421C95.0892 39.1791 95.1291 39.2265 95.1566 39.2815C95.1841 39.3365 95.1983 39.3972 95.1983 39.4598C95.1348 39.951 94.9033 40.4052 94.5427 40.7446C94.0228 41.3041 93.39 41.745 92.686 42.0399C91.8188 42.4164 90.8804 42.6032 89.9354 42.5861C89.2039 42.6241 88.4734 42.5084 87.7902 42.2457C87.1071 41.9831 86.4857 41.58 85.9686 41.0623H85.9667ZM93.316 35.1822C93.3596 34.1789 93.0313 33.3843 92.3928 32.6077C92.0854 32.2559 91.703 31.9771 91.2723 31.7931C90.8425 31.6092 90.3766 31.5248 89.9098 31.5456C89.4421 31.521 88.9753 31.6035 88.5436 31.7875C88.1138 31.9714 87.7314 32.2521 87.4259 32.6077C86.8026 33.39 86.4838 34.1827 86.5274 35.1822H93.316Z" fill="#262626"/>
<path d="M98.253 41.0972C97.2539 40.0058 96.7045 38.5768 96.7131 37.0975L96.6884 36.0554L96.7131 35.2977C96.7064 33.8156 97.2653 32.3866 98.2776 31.3027C99.2701 30.3099 100.633 29.814 102.364 29.814C104.096 29.814 105.472 30.3099 106.45 31.3027C107.463 32.3866 108.022 33.8156 108.015 35.2977C108.044 35.6552 108.06 35.7178 108.06 36.0554C108.06 36.3929 108.044 36.74 108.015 37.0975C108.022 38.5768 107.472 40.0039 106.475 41.0972C105.512 42.09 104.141 42.586 102.363 42.586C100.585 42.586 99.215 42.09 98.2511 41.0972H98.253ZM104.838 39.8019C105.5 39.012 105.853 38.0088 105.831 36.978C105.831 36.814 105.856 35.5803 105.831 35.421C105.841 34.2688 105.501 33.387 104.838 32.5971C104.173 31.9655 103.291 31.6137 102.375 31.6137C101.46 31.6137 100.577 31.9655 99.9124 32.5971C99.252 33.3879 98.8991 34.3912 98.92 35.421V36.978C98.9 38.0078 99.253 39.0101 99.9124 39.8019C100.577 40.4334 101.459 40.7852 102.375 40.7852C103.292 40.7852 104.174 40.4334 104.838 39.8019Z" fill="#262626"/>
<path d="M110.061 42.4363C110.009 42.3841 109.968 42.3225 109.941 42.2542C109.914 42.1859 109.902 42.1129 109.902 42.039V30.3954C109.899 30.2427 109.957 30.0948 110.061 29.9838C110.111 29.9269 110.173 29.8824 110.243 29.853C110.312 29.8236 110.388 29.8113 110.463 29.815H111.481C111.559 29.8103 111.636 29.8217 111.709 29.8492C111.782 29.8767 111.848 29.9194 111.903 29.9734C111.958 30.0294 111.999 30.0957 112.026 30.1678C112.053 30.2399 112.066 30.3176 112.062 30.3954V31.4622C112.724 30.3669 113.848 29.8179 115.433 29.8141H116.377C116.452 29.8094 116.526 29.8198 116.597 29.8444C116.667 29.8691 116.733 29.908 116.788 29.9582C116.84 30.0132 116.879 30.0777 116.905 30.1488C116.931 30.22 116.942 30.2949 116.938 30.3698V31.2678C116.942 31.4148 116.889 31.557 116.789 31.6651C116.737 31.722 116.673 31.7656 116.602 31.7931C116.53 31.8206 116.454 31.831 116.377 31.8244H114.997C114.613 31.8035 114.229 31.8604 113.868 31.9941C113.508 32.1269 113.179 32.3327 112.901 32.5991C112.638 32.8817 112.436 33.2136 112.304 33.5758C112.172 33.938 112.115 34.323 112.136 34.708V42.0484C112.136 42.1224 112.123 42.1964 112.094 42.2646C112.065 42.3329 112.021 42.3946 111.968 42.4448C111.856 42.5482 111.708 42.6051 111.555 42.6032H110.463C110.388 42.6041 110.314 42.5899 110.244 42.5605C110.176 42.5311 110.112 42.4884 110.06 42.4344L110.061 42.4363Z" fill="#262626"/>
<path d="M120.975 46.8607C120.885 46.7696 120.833 46.6464 120.831 46.5184C120.857 46.3695 120.896 46.2234 120.95 46.0812L122.842 41.6491L118.209 30.7309C118.135 30.6038 118.087 30.4645 118.065 30.3194C118.079 30.1828 118.139 30.0548 118.235 29.9571C118.326 29.8671 118.449 29.8149 118.578 29.813H119.691C119.816 29.813 119.938 29.8481 120.043 29.9173C120.147 29.9865 120.228 30.0842 120.277 30.1999L124.01 39.1324L127.84 30.1999C127.886 30.0842 127.966 29.9856 128.07 29.9173C128.175 29.849 128.296 29.8121 128.42 29.813H129.512C129.575 29.813 129.638 29.8253 129.695 29.85C129.754 29.8746 129.806 29.9107 129.85 29.9562C129.897 29.9989 129.935 30.051 129.96 30.1098C129.986 30.1677 130 30.2302 130 30.2938C129.989 30.4464 129.946 30.5944 129.876 30.7309L123.013 46.6113C122.949 46.7232 122.862 46.8208 122.76 46.8995C122.655 46.9697 122.533 47.0048 122.408 46.9991H121.34C121.273 47.001 121.206 46.9906 121.144 46.9669C121.082 46.9432 121.025 46.9071 120.977 46.8607H120.975Z" fill="#262626"/>
<g clip-path="url(#clip0_2573_5667)">
<path d="M44.8819 38.4997C41.7821 35.9246 41.2561 29.7135 40.512 25.7074C40.4094 25.091 40.293 24.4585 40.1628 23.8092C39.4187 20.0692 38.3392 15.9155 36.5929 12.1412C36.2507 11.3955 35.8801 10.646 35.4782 9.9454C35.3733 9.73508 35.2546 9.52858 35.1291 9.32208L35.077 9.23413C34.9545 9.03068 34.8328 8.83183 34.7034 8.63145C34.6123 8.48767 34.5182 8.35153 34.424 8.21157C34.3298 8.07161 34.2356 7.93165 34.1376 7.79475C32.2933 5.18291 29.8174 3.0835 26.9411 1.6946C26.8676 1.65942 26.7941 1.63189 26.7176 1.59976L26.6509 1.57529L26.494 1.51258L26.3057 1.43915C24.8855 0.865544 23.3804 0.532085 21.8515 0.45178L21.066 0.415834C21.066 0.415834 20.4014 0.402832 20.2621 0.402832C2.26385 0.402067 0 18.4302 0 26.4982C0 34.5662 4.65325 46.9845 18.1093 46.9845C18.675 46.9845 19.227 46.9631 19.7652 46.9218L20.2231 46.8836C23.3229 46.6189 26.2919 45.5115 28.8099 43.679C29.4071 43.2484 29.9767 42.7811 30.5149 42.2786C30.609 42.1945 30.7002 42.1073 30.7943 42.0163C30.962 41.8656 31.1296 41.6836 31.2904 41.5153C31.3746 41.4312 31.4543 41.3471 31.5346 41.2599C31.8034 40.9693 32.066 40.6718 32.3171 40.3666C32.422 40.2404 32.5092 40.1318 32.621 39.9918C32.7328 39.8519 32.8446 39.7081 32.9525 39.5643C33.2764 39.1391 33.5849 38.7062 33.8781 38.2649C33.8781 38.2649 33.5704 37.1896 33.4272 36.6328C32.7382 33.8175 32.2053 30.9663 31.8309 28.0913L31.6985 27.1797L31.4849 27.7762C31.4183 27.9621 31.3455 28.1548 31.2682 28.3537C31.2506 28.4026 31.2299 28.4516 31.2085 28.5043C31.0898 28.7705 30.9781 29.0474 30.8594 29.3273C30.8387 29.3824 30.8158 29.4359 30.7897 29.4887C30.6711 29.7724 30.5417 30.063 30.4054 30.3605C30.3809 30.4133 30.3564 30.4692 30.3288 30.525C30.2485 30.6932 30.1681 30.8684 30.0808 31.0435L29.8014 31.5965C29.7072 31.7892 29.613 31.9575 29.5112 32.1395C29.4446 32.2657 29.3711 32.3919 29.3014 32.5173C29.0672 32.9341 28.816 33.354 28.5465 33.7678C28.4945 33.8519 28.4386 33.9391 28.3789 34.0232C28.2847 34.167 28.1867 34.3139 28.0857 34.4538C27.9456 34.6573 27.7993 34.8569 27.6493 35.0565L27.6286 35.0848L27.5934 35.1307C26.4098 36.8049 24.8556 38.1808 23.0519 39.1505C22.8559 39.2416 22.4042 39.5108 21.1265 39.8702C19.8479 40.2297 18.8289 40.2121 18.8289 40.2121C17.2082 40.2121 15.5522 39.9949 14.155 39.1161C14.0784 39.0779 14.0539 39.0565 13.9245 38.9869C13.7952 38.9165 13.6834 38.8431 13.5754 38.7697L13.4989 38.7138C13.3595 38.6205 13.2256 38.5203 13.0969 38.4125C13.0296 38.3651 12.9653 38.3138 12.9048 38.258C12.7126 38.102 12.5281 37.936 12.3528 37.7609C12.2372 37.6454 12.1254 37.5299 12.0213 37.4106C11.9861 37.3785 11.9532 37.3433 11.9233 37.3058C11.8322 37.2041 11.7419 37.0993 11.6576 36.9938C11.6393 36.9754 11.6232 36.9555 11.6086 36.9341C11.0077 36.1096 10.474 35.2385 10.0124 34.3284C9.86539 34.0095 9.72605 33.6875 9.60356 33.3617C9.55456 33.2424 9.51628 33.1307 9.47111 33.0114C9.42594 32.8921 9.38383 32.7766 9.34556 32.6611C9.26134 32.4301 9.18861 32.1953 9.11817 31.9605C9.07607 31.8313 9.04162 31.7051 9.00257 31.5751C8.59834 30.0829 8.26225 28.2512 8.16042 27.0229C8.05936 25.7946 7.95754 23.6914 8.38857 21.1185C8.8196 18.5457 9.92817 15.8628 10.0009 15.6838C10.781 13.6807 11.9493 11.8528 13.4384 10.3049C13.5816 10.1611 13.7286 10.0211 13.8817 9.88804C15.324 8.63757 17.0956 7.6785 19.0241 7.52094H19.1221L19.4506 7.48576L19.8839 7.45746C22.3636 7.39857 24.773 8.29035 26.6188 9.95075C26.6923 10.0173 26.7413 10.0662 26.8385 10.1611C26.9365 10.2559 27.0307 10.35 27.1287 10.4517L27.2512 10.581L27.3277 10.6613L27.4357 10.7836L27.4954 10.8502L27.6141 10.9871C28.4761 12.0035 29.2126 13.1209 29.8082 14.314C29.8817 14.4609 29.9552 14.6008 30.0211 14.7446L30.0731 14.8532C30.3533 15.4115 30.6045 15.9844 30.8242 16.5694C30.8341 16.5977 30.8464 16.626 30.8594 16.6536C30.8977 16.7553 30.9398 16.857 30.9781 16.9618L31.0095 17.049C31.1143 17.3258 31.2154 17.5989 31.3096 17.8757C31.3586 18.0126 31.4037 18.1488 31.4497 18.2857C31.4948 18.4226 31.5232 18.4991 31.5821 18.6918C31.6418 18.8845 31.7077 19.0979 31.7498 19.2348C31.7919 19.3717 31.834 19.504 31.8723 19.6409C31.935 19.8612 31.9978 20.0753 32.0575 20.2956C32.3822 21.4933 32.6302 22.6099 32.8193 23.5591C32.8714 23.8183 32.9204 24.0669 32.9625 24.3017C33.1263 25.1805 33.9508 31.6309 35.0587 36.0018C35.0587 36.0018 36.1175 40.2236 37.1778 42.0446C38.1654 43.7409 40.8404 47.3753 46.3029 46.9486C47.0493 46.8904 47.6955 46.4056 47.9596 45.7058L49.8927 40.5792C50.1193 39.9781 49.5666 39.3762 48.9465 39.5475C47.9022 39.8366 46.4575 39.8068 44.8812 38.4974L44.8819 38.4997Z" fill="url(#paint0_linear_2573_5667)"/>
<path d="M39.424 14.4194C39.5787 14.8393 39.7234 15.263 39.8612 15.6867C40.4185 17.3724 41.2637 20.7353 41.2637 20.7353H49.7388C50.2342 20.7353 50.6767 20.4286 50.8512 19.9659L53.2804 13.5223C53.4305 13.1238 53.1365 12.6978 52.7101 12.6978L44.163 12.6864L48.4825 1.22413C48.6325 0.825659 48.3378 0.399658 47.9114 0.399658H41.7308C41.2752 0.399658 40.8672 0.681874 40.7072 1.10787L37.4274 9.81756C37.579 10.1082 37.7305 10.4057 37.8752 10.7063C38.4548 11.9162 38.9716 13.1552 39.4248 14.4194H39.424Z" fill="url(#paint1_linear_2573_5667)"/>
</g>
<defs>
<linearGradient id="paint0_linear_2573_5667" x1="41.8339" y1="48.673" x2="10.3543" y2="-5.00516" gradientUnits="userSpaceOnUse">
<stop stop-color="#2F6AB1"/>
<stop offset="1" stop-color="#408FC1"/>
</linearGradient>
<linearGradient id="paint1_linear_2573_5667" x1="50.7392" y1="21.4724" x2="35.3578" y2="2.35477" gradientUnits="userSpaceOnUse">
<stop stop-color="#2F6AB1"/>
<stop offset="1" stop-color="#408FC1"/>
</linearGradient>
<clipPath id="clip0_2573_5667">
<rect width="53.321" height="46.5847" fill="white" transform="translate(0 0.399658)"/>
</clipPath>
</defs>
</svg>
